<?xml version="1.0" encoding="UTF-8"?>
<svg version="1.1" xmlns="http://www.w3.org/2000/svg" width="200" height="200">
<path d="M0 0 C1.19560547 0.41636719 2.39121094 0.83273438 3.62304688 1.26171875 C12.41214532 4.34964532 12.41214532 4.34964532 13.5625 5.5 C13.6508967 7.8756852 13.67780305 10.22208674 13.66015625 12.59765625 C13.6587413 13.30651474 13.65732635 14.01537323 13.65586853 14.74571228 C13.65025443 17.01801712 13.63769963 19.29022475 13.625 21.5625 C13.61998681 23.09960796 13.61542359 24.63671745 13.61132812 26.17382812 C13.60028042 29.94925642 13.58300641 33.72461171 13.5625 37.5 C9.52556576 39.28470941 5.47368503 41.02786443 1.40429688 42.73681641 C0.02663809 43.3217747 -1.34660979 43.91724979 -2.71484375 44.52392578 C-11.84149646 48.56020129 -18.53849021 50.33842575 -28.4375 47.5 C-30.11510299 47.14495175 -31.7947401 46.79933508 -33.4765625 46.46484375 C-35.00594424 46.12569755 -36.53461188 45.78331289 -38.0625 45.4375 C-39.24392578 45.17743164 -39.24392578 45.17743164 -40.44921875 44.91210938 C-46.17794061 43.6297797 -46.17794061 43.6297797 -48.4375 42.5 C-48.4375 28.64 -48.4375 14.78 -48.4375 0.5 C-42.78562103 -1.11482256 -37.24091286 -2.49452711 -31.5 -3.6875 C-30.21706055 -3.97270508 -30.21706055 -3.97270508 -28.90820312 -4.26367188 C-18.15059734 -6.48740274 -10.15356409 -3.61787226 0 0 Z " fill="#3B1F75" transform="translate(83.4375,137.5)"/>
<path d="M0 0 C1.61829712 0.54442749 1.61829712 0.54442749 3.26928711 1.09985352 C5.28807983 1.79099243 5.28807983 1.79099243 7.34765625 2.49609375 C11.65828125 3.96046875 15.96890625 5.42484375 20.41015625 6.93359375 C20.41015625 17.49359375 20.41015625 28.05359375 20.41015625 38.93359375 C17.11015625 40.58359375 13.81015625 42.23359375 10.41015625 43.93359375 C8.94578125 44.73023438 7.48140625 45.526875 5.97265625 46.34765625 C-8.50155985 53.64013016 -20.41520055 51.41890902 -35.58984375 46.93359375 C-37.56984375 46.27359375 -39.54984375 45.61359375 -41.58984375 44.93359375 C-41.58984375 31.07359375 -41.58984375 17.21359375 -41.58984375 2.93359375 C-35.74405351 1.26336797 -30.03876693 -0.08852314 -24.08984375 -1.25390625 C-22.72279297 -1.53911133 -22.72279297 -1.53911133 -21.328125 -1.83007812 C-19.98814453 -2.09208008 -19.98814453 -2.09208008 -18.62109375 -2.359375 C-17.42323242 -2.59950317 -17.42323242 -2.59950317 -16.20117188 -2.84448242 C-10.50834239 -3.32828777 -5.34298924 -1.81508247 0 0 Z " fill="#3C1F76" transform="translate(111.58984375,77.06640625)"/>
<path d="M0 0 C4.125 1.464375 8.25 2.92875 12.5 4.4375 C12.5 14.9975 12.5 25.5575 12.5 36.4375 C6.52065303 39.42717348 0.66496797 42.16546765 -5.5 44.6875 C-6.35078125 45.05101562 -7.2015625 45.41453125 -8.078125 45.7890625 C-18.47497548 50.03072236 -26.37069391 48.02949336 -37 45.4375 C-41.125 44.4475 -45.25 43.4575 -49.5 42.4375 C-49.5 28.5775 -49.5 14.7175 -49.5 0.4375 C-43.84398365 -1.44783878 -38.4603094 -2.66808521 -32.625 -3.75 C-31.66980469 -3.94013672 -30.71460937 -4.13027344 -29.73046875 -4.32617188 C-18.52509036 -6.40892739 -10.56003928 -3.78781138 0 0 Z " fill="#3C1F76" transform="translate(150.5,23.5625)"/>
<path d="M0 0 C0.65501999 0.22100372 1.31003998 0.44200745 1.98490906 0.66970825 C4.06089042 1.37399958 6.12974134 2.09716372 8.19921875 2.8203125 C9.6083246 3.29935343 11.01782677 3.77723021 12.42773438 4.25390625 C22.69848421 7.75707796 22.69848421 7.75707796 23.88671875 8.9453125 C23.97511545 11.3209977 24.0020218 13.66739924 23.984375 16.04296875 C23.98296005 16.75182724 23.9815451 17.46068573 23.98008728 18.19102478 C23.97447318 20.46332962 23.96191838 22.73553725 23.94921875 25.0078125 C23.94420556 26.54492046 23.93964234 28.08202995 23.93554688 29.61914062 C23.92449917 33.39456892 23.90722516 37.16992421 23.88671875 40.9453125 C17.22061899 44.00600593 10.55277476 47.04599122 3.76171875 49.8203125 C2.66150391 50.29984375 2.66150391 50.29984375 1.5390625 50.7890625 C-4.08889885 53.06398537 -8.20610076 53.13428267 -14.11328125 51.9453125 C-15.05848633 51.75936523 -16.00369141 51.57341797 -16.97753906 51.38183594 C-20.05197458 50.74802316 -23.1133506 50.07239417 -26.17578125 49.3828125 C-29.78515625 48.5784375 -33.39453125 47.7740625 -37.11328125 46.9453125 C-37.11328125 32.7553125 -37.11328125 18.5653125 -37.11328125 3.9453125 C-33.27703125 3.1409375 -29.44078125 2.3365625 -25.48828125 1.5078125 C-24.28993652 1.25588135 -23.0915918 1.0039502 -21.85693359 0.74438477 C-20.8973877 0.54385498 -19.9378418 0.3433252 -18.94921875 0.13671875 C-17.9751709 -0.06751709 -17.00112305 -0.27175293 -15.99755859 -0.48217773 C-15.04574707 -0.67110596 -14.09393555 -0.86003418 -13.11328125 -1.0546875 C-11.66779907 -1.40261353 -11.66779907 -1.40261353 -10.19311523 -1.75756836 C-6.29735473 -2.13340193 -3.69582253 -1.26670647 0 0 Z " fill="#3F217A" transform="translate(73.11328125,19.0546875)"/>
<path d="M0 0 C1.24330078 0.42087891 2.48660156 0.84175781 3.76757812 1.27539062 C12.89406406 4.39406406 12.89406406 4.39406406 14.0625 5.5625 C14.1508967 7.9381852 14.17780305 10.28458674 14.16015625 12.66015625 C14.1587413 13.36901474 14.15732635 14.07787323 14.15586853 14.80821228 C14.15025443 17.08051712 14.13769963 19.35272475 14.125 21.625 C14.11998681 23.16210796 14.11542359 24.69921745 14.11132812 26.23632812 C14.10028042 30.01175642 14.08300641 33.78711171 14.0625 37.5625 C10.8542732 39.04679905 7.64516578 40.52913048 4.43457031 42.00830078 C2.54166368 42.88074819 0.64962266 43.75510019 -1.23925781 44.63623047 C-3.00192656 45.45008985 -4.78186153 46.22624626 -6.5625 47 C-7.70976562 47.51433594 -8.85703125 48.02867187 -10.0390625 48.55859375 C-18.43521719 51.34542625 -28.34013508 47.99083782 -36.625 46 C-40.028125 45.195625 -43.43125 44.39125 -46.9375 43.5625 C-46.9375 29.3725 -46.9375 15.1825 -46.9375 0.5625 C-42.9775 -0.2625 -39.0175 -1.0875 -34.9375 -1.9375 C-33.70515625 -2.19853516 -32.4728125 -2.45957031 -31.203125 -2.72851562 C-19.02882631 -5.21226179 -11.70360649 -4.08726904 0 0 Z " fill="#3D2078" transform="translate(147.9375,137.4375)"/>
<path d="M0 0 C1.19109375 0.42087891 2.3821875 0.84175781 3.609375 1.27539062 C12.32043035 4.38293035 12.32043035 4.38293035 13.5 5.5625 C13.5883967 7.9381852 13.61530305 10.28458674 13.59765625 12.66015625 C13.5962413 13.36901474 13.59482635 14.07787323 13.59336853 14.80821228 C13.58775443 17.08051712 13.57519963 19.35272475 13.5625 21.625 C13.55748681 23.16210796 13.55292359 24.69921745 13.54882812 26.23632812 C13.53778042 30.01175642 13.52050641 33.78711171 13.5 37.5625 C6.83390024 40.62319343 0.16605601 43.66317872 -6.625 46.4375 C-7.72521484 46.91703125 -7.72521484 46.91703125 -8.84765625 47.40625 C-14.4756176 49.68117287 -18.59281951 49.75147017 -24.5 48.5625 C-25.44520508 48.37655273 -26.39041016 48.19060547 -27.36425781 47.99902344 C-30.43869333 47.36521066 -33.50006935 46.68958167 -36.5625 46 C-40.171875 45.195625 -43.78125 44.39125 -47.5 43.5625 C-47.5 29.3725 -47.5 15.1825 -47.5 0.5625 C-43.560625 -0.2625 -39.62125 -1.0875 -35.5625 -1.9375 C-34.33926025 -2.19853516 -33.11602051 -2.45957031 -31.85571289 -2.72851562 C-19.50738424 -5.25410512 -11.89938195 -4.35649595 0 0 Z " fill="#3F217B" transform="translate(52.5,79.4375)"/>
<path d="M0 0 C6.435 2.2275 6.435 2.2275 13 4.5 C13 15.72 13 26.94 13 38.5 C8.58625 40.335625 4.1725 42.17125 -0.375 44.0625 C-1.74575684 44.64588135 -3.11651367 45.2292627 -4.52880859 45.83032227 C-11.89897322 48.80733051 -17.22483719 50.32766814 -25 48.5 C-26.40113037 48.21660767 -26.40113037 48.21660767 -27.83056641 47.92749023 C-30.77566658 47.31139608 -33.69803822 46.63478855 -36.625 45.9375 C-40.04875 45.133125 -43.4725 44.32875 -47 43.5 C-47 29.31 -47 15.12 -47 0.5 C-43.04 -0.325 -39.08 -1.15 -35 -2 C-33.76765625 -2.26103516 -32.5353125 -2.52207031 -31.265625 -2.79101562 C-19.05187244 -5.282811 -11.72263297 -4.12044332 0 0 Z " fill="#3F217A" transform="translate(183,79.5)"/>
<path d="M0 0 C1.61829712 0.54442749 1.61829712 0.54442749 3.26928711 1.09985352 C4.61514893 1.56061279 5.96101074 2.02137207 7.34765625 2.49609375 C11.65828125 3.96046875 15.96890625 5.42484375 20.41015625 6.93359375 C20.41015625 17.49359375 20.41015625 28.05359375 20.41015625 38.93359375 C13.5621535 42.35759513 6.97207014 45.48594254 -0.08984375 48.30859375 C-0.981875 48.67597656 -1.87390625 49.04335937 -2.79296875 49.421875 C-3.64375 49.76347656 -4.49453125 50.10507813 -5.37109375 50.45703125 C-6.51674805 50.91988525 -6.51674805 50.91988525 -7.68554688 51.39208984 C-9.58984375 51.93359375 -9.58984375 51.93359375 -11.58984375 50.93359375 C-11.58984375 33.77359375 -11.58984375 16.61359375 -11.58984375 -1.06640625 C-17.52984375 -0.57140625 -17.52984375 -0.57140625 -23.58984375 -0.06640625 C-23.58984375 -0.39640625 -23.58984375 -0.72640625 -23.58984375 -1.06640625 C-22.07263392 -1.43578732 -20.55077303 -1.7860779 -19.02734375 -2.12890625 C-18.18042969 -2.32613281 -17.33351563 -2.52335937 -16.4609375 -2.7265625 C-10.6991506 -3.40856993 -5.4201254 -1.84128662 0 0 Z " fill="#874BE1" transform="translate(111.58984375,77.06640625)"/>
<path d="M0 0 C7.62455979 0.5189985 14.34404164 2.99570836 21.5 5.5625 C25.625 7.026875 29.75 8.49125 34 10 C34 20.56 34 31.12 34 42 C27.9124492 45.0437754 21.98086766 47.74194204 15.6875 50.25 C14.79482422 50.61351562 13.90214844 50.97703125 12.98242188 51.3515625 C12.12583984 51.69445312 11.26925781 52.03734375 10.38671875 52.390625 C9.61545654 52.70032227 8.84419434 53.01001953 8.04956055 53.32910156 C6 54 6 54 3 54 C3 36.51 3 19.02 3 1 C2.01 0.67 1.02 0.34 0 0 Z " fill="#874AE0" transform="translate(129,18)"/>
<path d="M0 0 C4.79934006 0.68562001 8.27444354 1.26414889 12.6796875 2.8125 C13.6903125 3.16570312 14.7009375 3.51890625 15.7421875 3.8828125 C17.29292969 4.43582031 17.29292969 4.43582031 18.875 5 C19.93203125 5.36867187 20.9890625 5.73734375 22.078125 6.1171875 C29.85667783 8.85667783 29.85667783 8.85667783 31 10 C31.0883967 12.3756852 31.11530305 14.72208674 31.09765625 17.09765625 C31.0962413 17.80651474 31.09482635 18.51537323 31.09336853 19.24571228 C31.08775443 21.51801712 31.07519963 23.79022475 31.0625 26.0625 C31.05748681 27.59960796 31.05292359 29.13671745 31.04882812 30.67382812 C31.03778042 34.44925642 31.02050641 38.22461171 31 42 C26.78733513 43.73941066 22.56985676 45.46635065 18.34741211 47.18188477 C16.91144627 47.76734071 15.47686005 48.35619233 14.04370117 48.94848633 C11.9844852 49.79883062 9.92063095 50.63687514 7.85546875 51.47265625 C7.21473923 51.74030289 6.5740097 52.00794952 5.91386414 52.28370667 C1.34161512 54.11387171 1.34161512 54.11387171 -2 53 C-1.34 53 -0.68 53 0 53 C0 35.51 0 18.02 0 0 Z " fill="#884BE1" transform="translate(66,133)"/>
<path d="M0 0 C1.38591387 0.4847293 2.77263064 0.96716935 4.16015625 1.44726562 C14.11840302 4.93090302 14.11840302 4.93090302 15.375 6.1875 C15.4633967 8.5631852 15.49030305 10.90958674 15.47265625 13.28515625 C15.4712413 13.99401474 15.46982635 14.70287323 15.46836853 15.43321228 C15.46275443 17.70551712 15.45019963 19.97772475 15.4375 22.25 C15.43248681 23.78710796 15.42792359 25.32421745 15.42382812 26.86132812 C15.41278042 30.63675642 15.39550641 34.41211171 15.375 38.1875 C8.62254355 41.30426288 1.85215279 44.32284429 -5.0625 47.0625 C-5.83787109 47.3821875 -6.61324219 47.701875 -7.41210938 48.03125 C-8.16169922 48.32773438 -8.91128906 48.62421875 -9.68359375 48.9296875 C-10.34673584 49.1963623 -11.00987793 49.46303711 -11.69311523 49.73779297 C-13.9908168 50.27265538 -15.40839523 49.91885922 -17.625 49.1875 C-16.635 49.1875 -15.645 49.1875 -14.625 49.1875 C-14.625 32.0275 -14.625 14.8675 -14.625 -2.8125 C-16.275 -2.4825 -17.925 -2.1525 -19.625 -1.8125 C-21.95801986 -1.77425377 -24.29211508 -1.76675716 -26.625 -1.8125 C-26.625 -2.1425 -26.625 -2.4725 -26.625 -2.8125 C-16.77416224 -6.03092385 -9.2699667 -3.40136299 0 0 Z " fill="#884BE2" transform="translate(81.625,21.8125)"/>
<path d="M0 0 C1.24330078 0.42087891 2.48660156 0.84175781 3.76757812 1.27539062 C12.89406406 4.39406406 12.89406406 4.39406406 14.0625 5.5625 C14.1508967 7.9381852 14.17780305 10.28458674 14.16015625 12.66015625 C14.1587413 13.36901474 14.15732635 14.07787323 14.15586853 14.80821228 C14.15025443 17.08051712 14.13769963 19.35272475 14.125 21.625 C14.11998681 23.16210796 14.11542359 24.69921745 14.11132812 26.23632812 C14.10028042 30.01175642 14.08300641 33.78711171 14.0625 37.5625 C7.05518389 40.83557057 0.06100834 44.07521217 -7.125 46.9375 C-7.76501953 47.19660156 -8.40503906 47.45570313 -9.06445312 47.72265625 C-13.68353175 49.5625 -13.68353175 49.5625 -15.9375 49.5625 C-15.9375 32.0725 -15.9375 14.5825 -15.9375 -3.4375 C-17.2575 -3.1075 -18.5775 -2.7775 -19.9375 -2.4375 C-22.27050933 -2.39861651 -24.60459801 -2.3926365 -26.9375 -2.4375 C-26.9375 -2.7675 -26.9375 -3.0975 -26.9375 -3.4375 C-16.99973423 -5.92194144 -9.42830608 -3.29266227 0 0 Z " fill="#884BE2" transform="translate(147.9375,137.4375)"/>
<path d="M0 0 C10.13456649 2.25212589 10.13456649 2.25212589 14.21875 3.69140625 C15.08757813 3.99626953 15.95640625 4.30113281 16.8515625 4.61523438 C17.72554687 4.92783203 18.59953125 5.24042969 19.5 5.5625 C20.40492187 5.87896484 21.30984375 6.19542969 22.2421875 6.52148438 C28.86242378 8.86242378 28.86242378 8.86242378 30 10 C30.0883967 12.3756852 30.11530305 14.72208674 30.09765625 17.09765625 C30.0962413 17.80651474 30.09482635 18.51537323 30.09336853 19.24571228 C30.08775443 21.51801712 30.07519963 23.79022475 30.0625 26.0625 C30.05748681 27.59960796 30.05292359 29.13671745 30.04882812 30.67382812 C30.03778042 34.44925642 30.02050641 38.22461171 30 42 C23.24754355 45.11676288 16.47715279 48.13534429 9.5625 50.875 C8.78712891 51.1946875 8.01175781 51.514375 7.21289062 51.84375 C6.08850586 52.28847656 6.08850586 52.28847656 4.94140625 52.7421875 C4.27826416 53.0088623 3.61512207 53.27553711 2.93188477 53.55029297 C0.6341832 54.08515538 -0.78339523 53.73135922 -3 53 C-2.01 53 -1.02 53 0 53 C0 35.51 0 18.02 0 0 Z " fill="#884BE2" transform="translate(36,75)"/>
<path d="M0 0 C6.99630822 1.90808406 13.84168717 3.85607406 20.6875 6.1875 C23.430625 7.115625 26.17375 8.04375 29 9 C29 20.22 29 31.44 29 43 C24.483125 44.815 19.96625 46.63 15.3125 48.5 C13.89622314 49.07427734 12.47994629 49.64855469 11.02075195 50.24023438 C9.89628662 50.68689453 8.77182129 51.13355469 7.61328125 51.59375 C6.46641846 52.05458984 5.31955566 52.51542969 4.13793945 52.99023438 C1.18951721 53.93901477 -0.93607005 54.22082378 -4 54 C-2.02 53.505 -2.02 53.505 0 53 C0 35.51 0 18.02 0 0 Z " fill="#884BE2" transform="translate(167,75)"/>
<path d="M0 0 C0 13.2 0 26.4 0 40 C-3.3 39.67 -6.6 39.34 -10 39 C-10 26.79 -10 14.58 -10 2 C-3 0 -3 0 0 0 Z " fill="#9C60E6" transform="translate(62,139)"/>
<path d="M0 0 C0 13.2 0 26.4 0 40 C-3.3 39.67 -6.6 39.34 -10 39 C-10 26.79 -10 14.58 -10 2 C-4 0 -4 0 0 0 Z " fill="#9C60E6" transform="translate(97,81)"/>
<path d="M0 0 C0 12.87 0 25.74 0 39 C-2.97 39 -5.94 39 -9 39 C-10 38 -10 38 -10.11352539 34.58178711 C-10.11336628 33.06363012 -10.10767226 31.54546771 -10.09765625 30.02734375 C-10.0962413 29.22970108 -10.09482635 28.43205841 -10.09336853 27.61024475 C-10.08775316 25.05262565 -10.07519812 22.49509282 -10.0625 19.9375 C-10.05748698 18.20768355 -10.05292373 16.47786574 -10.04882812 14.74804688 C-10.03777875 10.49866447 -10.02050386 6.24934688 -10 2 C-6.38026598 0.68373308 -3.90432869 0 0 0 Z " fill="#9D61E7" transform="translate(128,25)"/>
<path d="M0 0 C0 12.87 0 25.74 0 39 C-2.97 39 -5.94 39 -9 39 C-9 26.46 -9 13.92 -9 1 C-5 0 -5 0 0 0 Z " fill="#9F63EA" transform="translate(31,82)"/>
<path d="M0 0 C0 12.87 0 25.74 0 39 C-7 39 -7 39 -9 38 C-9 25.79 -9 13.58 -9 1 C-4 0 -4 0 0 0 Z " fill="#9F63EA" transform="translate(127,140)"/>
<path d="M0 0 C0 12.87 0 25.74 0 39 C-2.97 38.67 -5.94 38.34 -9 38 C-9 25.79 -9 13.58 -9 1 C-5 0 -5 0 0 0 Z " fill="#A063EA" transform="translate(62,25)"/>
<path d="M0 0 C0 12.87 0 25.74 0 39 C-2.97 38.67 -5.94 38.34 -9 38 C-9 25.79 -9 13.58 -9 1 C-4 0 -4 0 0 0 Z " fill="#A063EB" transform="translate(162,82)"/>
<path d="M0 0 C0 11.55 0 23.1 0 35 C-8 34 -8 34 -9 33 C-9.0883967 30.6243148 -9.11530305 28.27791326 -9.09765625 25.90234375 C-9.0962413 25.19348526 -9.09482635 24.48462677 -9.09336853 23.75428772 C-9.08775443 21.48198288 -9.07519963 19.20977525 -9.0625 16.9375 C-9.05748681 15.40039204 -9.05292359 13.86328255 -9.04882812 12.32617188 C-9.03778042 8.55074358 -9.02050641 4.77538829 -9 1 C-5.94152152 0.45627049 -3.11227195 0 0 0 Z " fill="#A66BE8" transform="translate(114,142)"/>
<path d="M0 0 C0 11.55 0 23.1 0 35 C-8 34 -8 34 -9 33 C-9.0883967 30.6243148 -9.11530305 28.27791326 -9.09765625 25.90234375 C-9.0962413 25.19348526 -9.09482635 24.48462677 -9.09336853 23.75428772 C-9.08775443 21.48198288 -9.07519963 19.20977525 -9.0625 16.9375 C-9.05748681 15.40039204 -9.05292359 13.86328255 -9.04882812 12.32617188 C-9.03778042 8.55074358 -9.02050641 4.77538829 -9 1 C-5.94152152 0.45627049 -3.11227195 0 0 0 Z " fill="#A66BE8" transform="translate(149,84)"/>
<path d="M0 0 C0 11.55 0 23.1 0 35 C-2.97 34.34 -5.94 33.68 -9 33 C-9 22.44 -9 11.88 -9 1 C-4 0 -4 0 0 0 Z " fill="#A76CE9" transform="translate(18,84)"/>
<path d="M0 0 C0 11.22 0 22.44 0 34 C-2.97 33.67 -5.94 33.34 -9 33 C-9 22.44 -9 11.88 -9 1 C-7 0 -7 0 0 0 Z " fill="#A76CE9" transform="translate(115,28)"/>
<path d="M0 0 C2.31 0 4.62 0 7 0 C7 11.22 7 22.44 7 34 C1 34 1 34 -1 33 C-1.02465392 28.46102295 -1.04283789 23.92208457 -1.05493164 19.38305664 C-1.0599714 17.83780234 -1.0668032 16.29255284 -1.07543945 14.74731445 C-1.08752076 12.53074971 -1.09323173 10.31424782 -1.09765625 8.09765625 C-1.10281754 7.4028566 -1.10797882 6.70805695 -1.11329651 5.99220276 C-1.11349277 4.3277067 -1.06189129 2.66334501 -1 1 C-0.67 0.67 -0.34 0.34 0 0 Z " fill="#AC70EF" transform="translate(41,142)"/>
<path d="M0 0 C2.31 0 4.62 0 7 0 C7 11.22 7 22.44 7 34 C3.04 33.505 3.04 33.505 -1 33 C-1.02465392 28.46102295 -1.04283789 23.92208457 -1.05493164 19.38305664 C-1.0599714 17.83780234 -1.0668032 16.29255284 -1.07543945 14.74731445 C-1.08752076 12.53074971 -1.09323173 10.31424782 -1.09765625 8.09765625 C-1.10281754 7.4028566 -1.10797882 6.70805695 -1.11329651 5.99220276 C-1.11349277 4.3277067 -1.06189129 2.66334501 -1 1 C-0.67 0.67 -0.34 0.34 0 0 Z " fill="#AD70EF" transform="translate(76,84)"/>
<path d="M0 0 C0 11.22 0 22.44 0 34 C-6 34 -6 34 -8 33 C-8 22.44 -8 11.88 -8 1 C-4 0 -4 0 0 0 Z " fill="#AD70EF" transform="translate(49,27)"/>
</svg>
